<?xml version="1.0" encoding="utf-8"?>
<!-- Generator: Adobe Illustrator 17.0.1, SVG Export Plug-In . SVG Version: 6.00 Build 0)  -->
<!DOCTYPE svg PUBLIC "-//W3C//DTD SVG 1.1//EN" "http://www.w3.org/Graphics/SVG/1.1/DTD/svg11.dtd">
<svg version="1.1" id="Layer_1" xmlns="http://www.w3.org/2000/svg" xmlns:xlink="http://www.w3.org/1999/xlink" x="0px" y="0px"
	 width="390px" height="79.64px" viewBox="0 0 390 79.64" style="enable-background:new 0 0 390 79.64;" xml:space="preserve">
<style type="text/css">
	.st0{clip-path:url(#SVGID_2_);fill:#CAB0D3;}
	.st1{clip-path:url(#SVGID_2_);fill:#A0A0A0;}
</style>
<g>
	<defs>
		<rect id="SVGID_1_" width="390" height="79.64"/>
	</defs>
	<clipPath id="SVGID_2_">
		<use xlink:href="#SVGID_1_"  style="overflow:visible;"/>
	</clipPath>
	<path class="st0" d="M97.032,62.715c-9.918,0-17.989-8.071-17.989-17.985c0-9.375,14.094-29.23,17.989-29.23
		c3.89,0,17.984,19.855,17.984,29.23C115.016,54.644,106.946,62.715,97.032,62.715 M97.032,17.761
		c-2.489,0.86-15.743,18.02-15.743,26.969c0,8.676,7.063,15.738,15.743,15.738c8.675,0,15.738-7.062,15.738-15.738
		C112.77,35.781,99.516,18.621,97.032,17.761"/>
	<polygon class="st1" points="75.012,15.855 70.914,15.855 55.235,57.281 39.469,15.855 35.637,15.855 19.778,57.371 4.278,15.855 
		0,15.855 17.641,62.359 21.739,62.359 37.508,22.004 53.188,62.359 57.375,62.359 	"/>
	<path class="st1" d="M135.211,59.687c3.563,2.047,7.481,3.028,11.938,3.028c4.363,0,8.285-0.981,11.847-3.028
		c3.563-1.961,6.325-4.812,8.375-8.375c1.961-3.562,3.028-7.66,3.028-12.203c0-4.457-1.067-8.555-3.028-12.117
		c-2.05-3.563-4.812-6.414-8.375-8.465c-3.562-1.957-7.484-3.027-11.847-3.027c-4.457,0-8.375,1.07-11.938,3.027
		c-3.566,2.051-6.328,4.902-8.285,8.465c-2.051,3.562-3.031,7.66-3.031,12.117c0,4.543,0.98,8.641,3.031,12.203
		C128.883,54.875,131.645,57.726,135.211,59.687 M156.68,56.211c-2.852,1.695-5.969,2.496-9.531,2.496
		c-3.567,0-6.774-0.801-9.621-2.496c-2.852-1.602-5.078-3.918-6.684-6.95c-1.601-2.937-2.406-6.324-2.406-10.152
		c0-3.742,0.805-7.129,2.406-10.156c1.606-2.942,3.832-5.258,6.684-6.949c2.847-1.606,6.054-2.496,9.621-2.496
		c3.562,0,6.679,0.89,9.531,2.496c2.852,1.691,5.078,4.007,6.68,6.949c1.605,3.027,2.496,6.414,2.496,10.156
		c0,3.828-0.891,7.215-2.496,10.152C161.758,52.293,159.532,54.609,156.68,56.211"/>
	<path class="st1" d="M219.231,18.527c-3.563-1.957-7.481-3.027-11.758-3.027c-4.187,0-7.93,1.07-11.316,3.027
		c-3.383,1.961-5.969,4.723-7.75,8.285V15.855h-4.274V79.64h4.453V51.758c1.782,3.476,4.364,6.148,7.75,8.105
		c3.297,1.961,7.039,2.852,11.137,2.852c4.277,0,8.195-0.981,11.758-2.938c3.476-1.961,6.238-4.812,8.199-8.375
		c1.957-3.562,3.027-7.664,3.027-12.293c0-4.547-1.07-8.644-3.027-12.207C225.469,23.34,222.707,20.578,219.231,18.527
		 M216.828,56.211c-2.851,1.695-6.058,2.496-9.624,2.496c-3.563,0-6.77-0.801-9.622-2.496c-2.847-1.602-5.078-3.918-6.679-6.95
		c-1.606-2.937-2.407-6.324-2.407-10.152c0-3.742,0.801-7.129,2.407-10.156c1.601-2.942,3.832-5.258,6.679-6.949
		c2.852-1.606,6.059-2.496,9.622-2.496c3.566,0,6.773,0.89,9.624,2.496c2.848,1.691,5.079,4.007,6.68,6.949
		c1.606,3.027,2.496,6.414,2.496,10.156c0,3.828-0.89,7.215-2.496,10.152C221.907,52.293,219.676,54.609,216.828,56.211"/>
	<path class="st1" d="M299.391,15.144c-2.852-4.722-6.77-8.375-11.758-11.136C282.641,1.336,276.852,0,270.438,0h-24.676v4.097
		h24.32c5.7,0,10.778,1.157,15.235,3.473c4.363,2.316,7.75,5.523,10.156,9.531c2.316,4.098,3.563,8.821,3.563,14.078
		c0,5.344-1.247,9.977-3.563,14.075c-2.406,4.097-5.793,7.304-10.156,9.621c-4.457,2.316-9.535,3.386-15.235,3.386h-19.777V31.179
		h-4.543v31.18h24.676c6.414,0,12.203-1.336,17.195-4.008c4.988-2.672,8.906-6.328,11.758-11.047
		c2.762-4.722,4.187-10.066,4.187-16.125C303.578,25.211,302.153,19.863,299.391,15.144"/>
	<rect x="319.364" class="st1" width="4.543" height="62.359"/>
	<polygon class="st1" points="364.879,40.89 390,0 385.282,0 362.743,36.703 340.204,0 335.211,0 360.336,40.89 360.336,62.359 
		364.879,62.359 	"/>
</g>
</svg>
